
        <svg xmlns="http://www.w3.org/2000/svg" xmlns:xlink="http://www.w3.org/1999/xlink" version="1.1" width="3163.265306122449" 
        height="2288.9795918367354" viewBox="0 0 3163.265306122449 2288.9795918367354">
			
			<g transform="scale(8.16326530612245) translate(10, 10)">
				<defs id="SvgjsDefs1057"><linearGradient id="SvgjsLinearGradient1066"><stop id="SvgjsStop1067" stop-color="#2d388a" offset="0"></stop><stop id="SvgjsStop1068" stop-color="#00aeef" offset="1"></stop></linearGradient><linearGradient id="SvgjsLinearGradient1069"><stop id="SvgjsStop1070" stop-color="#006838" offset="0"></stop><stop id="SvgjsStop1071" stop-color="#96cf24" offset="1"></stop></linearGradient><linearGradient id="SvgjsLinearGradient1072"><stop id="SvgjsStop1073" stop-color="#2d388a" offset="0"></stop><stop id="SvgjsStop1074" stop-color="#00aeef" offset="1"></stop></linearGradient><linearGradient id="SvgjsLinearGradient1075"><stop id="SvgjsStop1076" stop-color="#51504f" offset="0"></stop><stop id="SvgjsStop1077" stop-color="#939598" offset="0.5"></stop><stop id="SvgjsStop1078" stop-color="#51504f" offset="1"></stop></linearGradient></defs><g id="SvgjsG1058" featureKey="rootContainer" transform="matrix(1.05,0,0,1.05,0,0)" fill="url(#SvgjsLinearGradient1066)"><rect y="0" height="1" width="1" opacity="0"></rect><rect y="243" width="350" height="5"></rect></g><g id="SvgjsG1059" featureKey="JjiT9w-0" transform="matrix(-1.2500000000000002,0,0,1.2500000000000002,247.00031240284443,22.244109004735947)" fill="url(#SvgjsLinearGradient1069)"><g xmlns="http://www.w3.org/2000/svg"><g><g><g><path d="M51.443,13.992c-1.605,0-3.213-0.612-4.438-1.838c-2.453-2.451-2.475-6.448-0.022-8.9      c2.451-2.451,6.404-2.473,8.854-0.022l0.044,0.044c2.453,2.452,2.453,6.427,0,8.878C54.657,13.379,53.048,13.992,51.443,13.992z      "></path><path d="M79.663,42.213c-1.603,0-3.2-0.607-4.427-1.825l-0.094-0.094c-2.459-2.444-2.472-6.418-0.027-8.878      c2.439-2.459,6.417-2.472,8.877-0.028l0.097,0.093c2.458,2.444,2.47,6.418,0.027,8.878      C82.891,41.594,81.275,42.213,79.663,42.213z M65.552,28.102c-1.604,0-3.212-0.612-4.438-1.838l-0.094-0.093      c-2.451-2.452-2.451-6.427,0-8.878s6.428-2.451,8.877,0l0.095,0.093c2.452,2.452,2.452,6.426,0,8.878      C68.768,27.489,67.159,28.102,65.552,28.102z"></path><path d="M93.689,56.283c-1.604,0-3.209-0.606-4.428-1.826c-1.813-1.813-2.298-4.444-1.438-6.683      c0.303-0.818,0.782-1.583,1.438-2.241c2.45-2.45,6.403-2.472,8.854-0.022l0.047,0.044c2.451,2.452,2.451,6.427,0,8.88      C96.932,55.666,95.311,56.283,93.689,56.283z"></path><path d="M65.46,84.535c-1.606,0-3.215-0.612-4.438-1.838c-2.453-2.451-2.453-6.428,0-8.879l0.094-0.092      c2.449-2.453,6.428-2.453,8.877,0c2.451,2.451,2.451,6.426,0,8.877l-0.094,0.094C68.673,83.923,67.064,84.535,65.46,84.535z       M79.568,70.426c-1.604,0-3.213-0.611-4.438-1.837c-2.451-2.452-2.451-6.428,0-8.879l0.092-0.095      c2.45-2.449,6.428-2.449,8.877,0c2.452,2.451,2.452,6.428,0,8.881l-0.092,0.093C82.783,69.813,81.177,70.426,79.568,70.426z"></path><path d="M51.398,98.596c-1.604,0-3.213-0.611-4.438-1.839c-2.453-2.45-2.453-6.425,0-8.877c2.451-2.452,6.445-2.475,8.896-0.022      c2.455,2.453,2.477,6.406,0.022,8.855l-0.044,0.044C54.611,97.982,53.004,98.596,51.398,98.596z"></path></g></g><g><g><path d="M31.563,12.737c-1.285,0-2.571-0.491-3.551-1.471c-1.961-1.961-1.983-5.163-0.022-7.125      c1.96-1.959,5.119-1.982,7.08-0.022l0.044,0.044c1.962,1.961,1.962,5.141,0,7.103C34.134,12.246,32.849,12.737,31.563,12.737z"></path><path d="M59.781,40.958c-1.278,0-2.561-0.487-3.538-1.46l-0.097-0.095c-1.969-1.955-1.979-5.133-0.021-7.102      c1.955-1.967,5.134-1.979,7.102-0.022l0.097,0.093c1.968,1.955,1.978,5.134,0.022,7.102      C62.361,40.462,61.072,40.958,59.781,40.958z M45.672,26.847c-1.285,0-2.571-0.49-3.551-1.471l-0.093-0.093      c-1.962-1.962-1.962-5.141,0-7.103c1.959-1.961,5.142-1.961,7.102,0l0.093,0.093c1.96,1.961,1.96,5.141,0,7.103      C48.244,26.356,46.958,26.847,45.672,26.847z"></path><path d="M73.809,55.027c-1.285,0-2.565-0.483-3.541-1.459c-1.451-1.451-1.838-3.559-1.149-5.351      c0.241-0.657,0.626-1.27,1.149-1.798c1.963-1.959,5.121-1.981,7.08-0.022l0.045,0.044c1.961,1.961,1.961,5.142,0,7.104      C76.406,54.533,75.105,55.027,73.809,55.027z"></path><path d="M45.58,83.28c-1.28,0-2.56-0.486-3.54-1.457c-1.967-1.958-1.978-5.138-0.023-7.104l0.093-0.095      c1.956-1.967,5.135-1.978,7.103-0.022c1.967,1.955,1.977,5.135,0.023,7.104l-0.093,0.094      C48.161,82.788,46.871,83.28,45.58,83.28z M59.688,69.171c-1.283,0-2.569-0.489-3.551-1.469c-1.962-1.964-1.962-5.146,0-7.104      l0.094-0.094c1.961-1.959,5.144-1.959,7.103,0c1.962,1.962,1.962,5.143,0,7.104l-0.095,0.096      C62.26,68.682,60.973,69.171,59.688,69.171z"></path><path d="M31.52,97.341c-1.285,0-2.571-0.489-3.551-1.471c-1.962-1.962-1.962-5.142,0-7.103c1.96-1.961,5.163-1.982,7.124-0.021      c1.961,1.962,1.984,5.118,0.022,7.08L35.07,95.87C34.09,96.852,32.804,97.341,31.52,97.341z"></path></g></g><g><g><path d="M16.131,11.48c-0.964,0-1.928-0.367-2.663-1.103c-1.472-1.47-1.494-3.877-0.022-5.347      c1.468-1.47,3.832-1.495,5.304-0.022l0.044,0.044c1.471,1.47,1.471,3.855,0,5.326C18.059,11.113,17.095,11.48,16.131,11.48z"></path><path d="M44.35,39.701c-0.964,0-1.928-0.368-2.663-1.104l-0.093-0.093c-1.471-1.471-1.471-3.855,0-5.326      c1.471-1.471,3.855-1.471,5.326,0l0.093,0.093c1.471,1.471,1.471,3.855,0,5.326C46.277,39.333,45.313,39.701,44.35,39.701z       M30.239,25.591c-0.964,0-1.927-0.367-2.663-1.103l-0.093-0.094c-1.471-1.47-1.471-3.855,0-5.326      c1.471-1.471,3.855-1.471,5.326,0l0.093,0.094c1.471,1.47,1.471,3.855,0,5.326C32.167,25.224,31.203,25.591,30.239,25.591z"></path><path d="M58.376,53.771c-0.962,0-1.921-0.361-2.651-1.092c-1.091-1.091-1.386-2.674-0.865-4.019      c0.184-0.494,0.47-0.956,0.865-1.352c1.469-1.47,3.834-1.495,5.305-0.022l0.044,0.044c1.472,1.47,1.472,3.854,0,5.326      C60.332,53.4,59.354,53.771,58.376,53.771z"></path><path d="M30.146,82.025c-0.96,0-1.92-0.364-2.654-1.096c-1.476-1.466-1.484-3.85-0.017-5.326l0.093-0.093      c1.466-1.477,3.852-1.483,5.326-0.02c1.476,1.467,1.483,3.853,0.017,5.327l-0.093,0.095      C32.083,81.655,31.114,82.025,30.146,82.025z M44.256,67.916c-0.964,0-1.928-0.368-2.663-1.104      c-1.471-1.471-1.471-3.855,0-5.324l0.093-0.096c1.471-1.471,3.855-1.471,5.326,0c1.471,1.471,1.471,3.855,0,5.326l-0.093,0.094      C46.184,67.548,45.22,67.916,44.256,67.916z"></path><path d="M16.087,96.084c-0.964,0-1.928-0.366-2.663-1.104c-1.472-1.472-1.472-3.854,0-5.325      c1.469-1.472,3.878-1.493,5.348-0.022c1.471,1.473,1.493,3.833,0.022,5.305l-0.044,0.045      C18.014,95.718,17.05,96.084,16.087,96.084z"></path></g></g><g><g><path d="M2.555,10.226c-0.643,0-1.285-0.245-1.775-0.735C-0.201,8.51-0.223,6.898,0.758,5.918      c0.978-0.98,2.548-1.004,3.529-0.022L4.33,5.939c0.98,0.979,0.98,2.57,0,3.551C3.84,9.98,3.197,10.226,2.555,10.226z"></path><path d="M30.774,38.445c-0.64,0-1.28-0.242-1.769-0.729l-0.095-0.093c-0.984-0.978-0.99-2.567-0.012-3.551      c0.979-0.983,2.57-0.989,3.551-0.012l0.094,0.094c0.985,0.978,0.99,2.567,0.012,3.551      C32.065,38.199,31.419,38.445,30.774,38.445z M16.665,24.336c-0.643,0-1.285-0.245-1.775-0.736l-0.094-0.094      c-0.981-0.98-0.981-2.57,0-3.551s2.57-0.981,3.551,0l0.094,0.094c0.981,0.98,0.981,2.57,0,3.551      C17.949,24.091,17.307,24.336,16.665,24.336z"></path><path d="M44.801,52.518c-0.642,0-1.28-0.24-1.764-0.726c-0.733-0.729-0.93-1.788-0.577-2.686      c0.119-0.333,0.311-0.644,0.577-0.909c0.979-0.98,2.549-1.004,3.528-0.022l0.044,0.044c0.98,0.979,0.98,2.571,0,3.551      C46.114,52.268,45.457,52.518,44.801,52.518z"></path><path d="M16.571,80.77c-0.643,0-1.284-0.246-1.775-0.735c-0.981-0.979-0.981-2.569,0-3.552l0.094-0.094      c0.981-0.979,2.569-0.979,3.551,0c0.981,0.98,0.981,2.572,0,3.551l-0.094,0.095C17.855,80.523,17.213,80.77,16.571,80.77z       M30.681,66.661c-0.643,0-1.285-0.246-1.775-0.736c-0.981-0.979-0.981-2.571,0-3.551l0.093-0.095c0.98-0.98,2.57-0.98,3.551,0      c0.98,0.98,0.98,2.572,0,3.551l-0.093,0.095C31.966,66.415,31.323,66.661,30.681,66.661z"></path><path d="M2.511,94.829c-0.643,0-1.285-0.244-1.775-0.734c-0.981-0.979-0.981-2.569,0-3.551c0.979-0.979,2.593-1.003,3.573-0.022      c0.98,0.981,1.002,2.549,0.022,3.529l-0.044,0.044C3.795,94.585,3.153,94.829,2.511,94.829z"></path></g></g></g></g></g><g id="SvgjsG1060" featureKey="j7RXiA-0" transform="matrix(2.474548002515802,0,0,2.474548002515802,7.515266567161502,152.67675090027305)" fill="url(#SvgjsLinearGradient1072)"><path d="M5.02 18.12 q1.36 0 1.98 -0.46 t0.62 -1.3 q0 -0.5 -0.21 -0.86 t-0.6 -0.65 t-0.95 -0.54 t-1.28 -0.49 q-0.72 -0.26 -1.39 -0.57 t-1.18 -0.77 t-0.82 -1.1 t-0.31 -1.54 q0 -1.88 1.3 -2.95 t3.54 -1.07 q1.3 0 2.31 0.29 t1.59 0.63 l-0.78 2.04 q-0.68 -0.38 -1.49 -0.58 t-1.67 -0.2 q-1.02 0 -1.59 0.42 t-0.57 1.18 q0 0.46 0.19 0.79 t0.54 0.59 t0.82 0.48 t1.03 0.42 q0.98 0.36 1.75 0.73 t1.3 0.88 t0.81 1.2 t0.28 1.67 q0 1.88 -1.33 2.91 t-3.89 1.03 q-0.86 0 -1.57 -0.11 t-1.26 -0.27 t-0.95 -0.33 t-0.64 -0.31 l0.74 -2.06 q0.54 0.3 1.46 0.6 t2.22 0.3 z M16.02 18.3 q1.12 0 1.7 -0.12 l0 -2.68 q-0.2 -0.06 -0.58 -0.12 t-0.84 -0.06 q-0.4 0 -0.81 0.06 t-0.74 0.22 t-0.53 0.45 t-0.2 0.73 q0 0.86 0.54 1.19 t1.46 0.33 z M15.82 9.28 q1.2 0 2.02 0.3 t1.31 0.84 t0.7 1.31 t0.21 1.69 l0 6.34 q-0.56 0.12 -1.69 0.29 t-2.55 0.17 q-0.94 0 -1.72 -0.18 t-1.33 -0.58 t-0.86 -1.04 t-0.31 -1.58 q0 -0.9 0.35 -1.52 t0.95 -1.01 t1.39 -0.56 t1.65 -0.17 q0.4 0 0.84 0.05 t0.94 0.17 l0 -0.4 q0 -0.42 -0.1 -0.8 t-0.35 -0.67 t-0.66 -0.45 t-1.03 -0.16 q-0.84 0 -1.54 0.12 t-1.14 0.28 l-0.3 -1.96 q0.46 -0.16 1.34 -0.32 t1.88 -0.16 z M24.92 14.5 q0 1.54 0.67 2.25 t1.73 0.71 q0.58 0 1.09 -0.16 t0.83 -0.38 l0 -5.42 q-0.26 -0.06 -0.64 -0.11 t-0.96 -0.05 q-1.32 0 -2.02 0.87 t-0.7 2.29 z M31.66 18.94 q0 2.5 -1.27 3.66 t-3.89 1.16 q-0.96 0 -1.87 -0.16 t-1.65 -0.42 l0.44 -2.06 q0.62 0.26 1.41 0.42 t1.71 0.16 q1.46 0 2.08 -0.6 t0.62 -1.78 l0 -0.4 q-0.36 0.18 -0.95 0.36 t-1.35 0.18 q-1 0 -1.83 -0.32 t-1.42 -0.94 t-0.92 -1.55 t-0.33 -2.15 q0 -1.14 0.35 -2.1 t1.02 -1.64 t1.63 -1.06 t2.18 -0.38 q1.18 0 2.24 0.18 t1.8 0.38 l0 9.06 z M37.18 20 l-2.42 0 l0 -10.46 l2.42 0 l0 10.46 z M37.440000000000005 6.48 q0 0.68 -0.44 1.08 t-1.04 0.4 q-0.62 0 -1.06 -0.4 t-0.44 -1.08 q0 -0.7 0.44 -1.1 t1.06 -0.4 q0.6 0 1.04 0.4 t0.44 1.1 z M40.14000000000001 6.779999999999999 l2.42 -0.4 l0 3.16 l3.72 0 l0 2.02 l-3.72 0 l0 4.26 q0 1.26 0.4 1.8 t1.36 0.54 q0.66 0 1.17 -0.14 t0.81 -0.26 l0.4 1.92 q-0.42 0.18 -1.1 0.37 t-1.6 0.19 q-1.12 0 -1.87 -0.3 t-1.19 -0.87 t-0.62 -1.38 t-0.18 -1.85 l0 -9.06 z M48.50000000000001 6.779999999999999 l2.42 -0.4 l0 3.16 l3.72 0 l0 2.02 l-3.72 0 l0 4.26 q0 1.26 0.4 1.8 t1.36 0.54 q0.66 0 1.17 -0.14 t0.81 -0.26 l0.4 1.92 q-0.42 0.18 -1.1 0.37 t-1.6 0.19 q-1.12 0 -1.87 -0.3 t-1.19 -0.87 t-0.62 -1.38 t-0.18 -1.85 l0 -9.06 z M60.660000000000004 18.3 q1.12 0 1.7 -0.12 l0 -2.68 q-0.2 -0.06 -0.58 -0.12 t-0.84 -0.06 q-0.4 0 -0.81 0.06 t-0.74 0.22 t-0.53 0.45 t-0.2 0.73 q0 0.86 0.54 1.19 t1.46 0.33 z M60.46000000000001 9.28 q1.2 0 2.02 0.3 t1.31 0.84 t0.7 1.31 t0.21 1.69 l0 6.34 q-0.56 0.12 -1.69 0.29 t-2.55 0.17 q-0.94 0 -1.72 -0.18 t-1.33 -0.58 t-0.86 -1.04 t-0.31 -1.58 q0 -0.9 0.35 -1.52 t0.95 -1.01 t1.39 -0.56 t1.65 -0.17 q0.4 0 0.84 0.05 t0.94 0.17 l0 -0.4 q0 -0.42 -0.1 -0.8 t-0.35 -0.67 t-0.66 -0.45 t-1.03 -0.16 q-0.84 0 -1.54 0.12 t-1.14 0.28 l-0.3 -1.96 q0.46 -0.16 1.34 -0.32 t1.88 -0.16 z M72.44 20 l0 -13.86 l8.9 0 l0 2.14 l-6.38 0 l0 3.42 l5.68 0 l0 2.1 l-5.68 0 l0 4.06 l6.86 0 l0 2.14 l-9.38 0 z M87.8 12.96 l2.22 -3.42 l2.54 0 l-3.44 4.94 q1.08 1.4 2.07 2.83 t1.63 2.69 l-2.62 0 q-0.18 -0.38 -0.47 -0.87 t-0.62 -1.02 t-0.69 -1.05 t-0.7 -0.98 q-0.7 0.9 -1.37 1.99 t-1.11 1.93 l-2.48 0 q0.3 -0.6 0.72 -1.28 t0.9 -1.39 t0.99 -1.42 t1.01 -1.35 l-3.46 -5.02 l2.66 0 z M101.56 14.82 q0 -1.62 -0.73 -2.52 t-2.35 -0.9 q-0.34 0 -0.71 0.03 t-0.73 0.13 l0 5.98 q0.32 0.22 0.85 0.41 t1.13 0.19 q1.32 0 1.93 -0.9 t0.61 -2.42 z M104.03999999999999 14.780000000000001 q0 1.2 -0.31 2.2 t-0.89 1.72 t-1.45 1.12 t-1.97 0.4 q-0.74 0 -1.36 -0.18 t-1.02 -0.4 l0 4.06 l-2.42 0 l0 -13.82 q0.74 -0.2 1.82 -0.38 t2.28 -0.18 q1.24 0 2.22 0.38 t1.67 1.09 t1.06 1.72 t0.37 2.27 z M112.5 11.72 q-0.3 -0.1 -0.83 -0.21 t-1.23 -0.11 q-0.4 0 -0.85 0.08 t-0.63 0.14 l0 8.38 l-2.42 0 l0 -9.96 q0.7 -0.26 1.75 -0.49 t2.33 -0.23 q0.24 0 0.56 0.03 t0.64 0.08 t0.62 0.12 t0.48 0.13 z M114.02 14.82 q0 -1.38 0.41 -2.42 t1.09 -1.73 t1.56 -1.04 t1.8 -0.35 q2.16 0 3.37 1.34 t1.21 4 q0 0.2 -0.01 0.45 t-0.03 0.45 l-6.9 0 q0.1 1.26 0.89 1.95 t2.29 0.69 q0.88 0 1.61 -0.16 t1.15 -0.34 l0.32 1.98 q-0.2 0.1 -0.55 0.21 t-0.8 0.2 t-0.97 0.15 t-1.06 0.06 q-1.38 0 -2.4 -0.41 t-1.68 -1.14 t-0.98 -1.72 t-0.32 -2.17 z M121.04 13.74 q0 -0.5 -0.14 -0.95 t-0.41 -0.78 t-0.66 -0.52 t-0.93 -0.19 q-0.56 0 -0.98 0.21 t-0.71 0.55 t-0.45 0.78 t-0.22 0.9 l4.5 0 z M128.64000000000001 18.26 q0.96 0 1.4 -0.23 t0.44 -0.79 q0 -0.52 -0.47 -0.86 t-1.55 -0.74 q-0.66 -0.24 -1.21 -0.51 t-0.95 -0.63 t-0.63 -0.87 t-0.23 -1.25 q0 -1.44 1.06 -2.27 t2.88 -0.83 q0.92 0 1.76 0.17 t1.26 0.33 l-0.44 1.96 q-0.4 -0.18 -1.02 -0.33 t-1.44 -0.15 q-0.74 0 -1.2 0.25 t-0.46 0.77 q0 0.26 0.09 0.46 t0.31 0.37 t0.58 0.34 t0.88 0.35 q0.86 0.32 1.46 0.63 t0.99 0.7 t0.57 0.89 t0.18 1.2 q0 1.5 -1.11 2.27 t-3.17 0.77 q-1.38 0 -2.22 -0.23 t-1.18 -0.37 l0.42 -2.02 q0.54 0.22 1.29 0.42 t1.71 0.2 z M137.78 18.26 q0.96 0 1.4 -0.23 t0.44 -0.79 q0 -0.52 -0.47 -0.86 t-1.55 -0.74 q-0.66 -0.24 -1.21 -0.51 t-0.95 -0.63 t-0.63 -0.87 t-0.23 -1.25 q0 -1.44 1.06 -2.27 t2.88 -0.83 q0.92 0 1.76 0.17 t1.26 0.33 l-0.44 1.96 q-0.4 -0.18 -1.02 -0.33 t-1.44 -0.15 q-0.74 0 -1.2 0.25 t-0.46 0.77 q0 0.26 0.09 0.46 t0.31 0.37 t0.58 0.34 t0.88 0.35 q0.86 0.32 1.46 0.63 t0.99 0.7 t0.57 0.89 t0.18 1.2 q0 1.5 -1.11 2.27 t-3.17 0.77 q-1.38 0 -2.22 -0.23 t-1.18 -0.37 l0.42 -2.02 q0.54 0.22 1.29 0.42 t1.71 0.2 z"></path></g><g id="SvgjsG1061" featureKey="XxmBkf-0" transform="matrix(1.1050386108442538,0,0,1.1050386108442538,42.89585742251801,213.06582349075418)" fill="url(#SvgjsLinearGradient1075)"><path d="M5.14 20 c-0.12 0 -0.22 -0.08 -0.24 -0.18 l-3.88 -11.98 c-0.04 -0.08 -0.02 -0.16 0.04 -0.24 c0.04 -0.06 0.12 -0.1 0.2 -0.1 l2.8 0 c0.1 0 0.22 0.08 0.24 0.18 l2.08 7.22 l1.9 -6.86 c0.02 -0.12 0.12 -0.2 0.24 -0.2 l2.54 0 c0.12 0 0.22 0.08 0.26 0.2 l1.92 6.86 l2.04 -7.22 c0.04 -0.1 0.14 -0.18 0.26 -0.18 l2.68 0 c0.08 0 0.16 0.04 0.2 0.1 c0.06 0.08 0.06 0.16 0.04 0.24 l-3.9 11.98 c-0.04 0.1 -0.12 0.18 -0.24 0.18 l-2.34 0 c-0.12 0 -0.22 -0.08 -0.24 -0.18 l-2 -7.1 l-2.04 7.1 c-0.02 0.1 -0.12 0.18 -0.24 0.18 l-2.32 0 z M23.228 20 l0 -11.98 c0 -0.5 0.1 -0.6 0.26 -0.6 l8.76 0 c0.14 0 0.26 0.1 0.26 0.24 l0 2.26 c0 0.14 -0.12 0.26 -0.26 0.26 l-5.92 0 l0 2.08 l3.74 0 c0.14 0 0.26 0.12 0.26 0.26 l0 2.24 c0 0.14 -0.12 0.26 -0.26 0.26 l-3.74 0 l0 2.14 l5.9 0 c0.14 0 0.26 0.12 0.26 0.26 l0 2.24 c0 0.14 -0.12 0.26 -0.26 0.26 l-8.74 0 c-0.16 0 -0.26 -0.12 -0.26 0.08 z M46.064 20 c-0.16 0 -0.26 -0.12 -0.26 -0.26 l0 -11.98 c0 -0.14 0.1 -0.26 0.26 -0.26 l4.54 0 c1.2 0 2.3 0.26 3.26 0.8 c0.96 0.52 1.7 1.26 2.24 2.22 c0.52 0.94 0.8 2.02 0.8 3.22 c0 1.22 -0.28 2.3 -0.82 3.24 c-0.54 0.96 -1.3 1.7 -2.28 2.22 c-0.96 0.54 -2.08 0.8 -3.3 0.8 l-4.44 0 z M48.904 17.2 l1.76 0 c0.58 0 1.12 -0.14 1.58 -0.42 c0.46 -0.3 0.84 -0.7 1.1 -1.22 s0.4 -1.12 0.4 -1.8 c0 -0.66 -0.14 -1.28 -0.42 -1.8 c-0.28 -0.54 -0.66 -0.94 -1.14 -1.24 c-0.48 -0.28 -1.04 -0.44 -1.64 -0.44 l-1.64 0 l0 6.92 z M61.852000000000004 20 l0 -11.98 c0 -0.5 0.1 -0.6 0.26 -0.6 l8.76 0 c0.14 0 0.26 0.1 0.26 0.24 l0 2.26 c0 0.14 -0.12 0.26 -0.26 0.26 l-5.92 0 l0 2.08 l3.74 0 c0.14 0 0.26 0.12 0.26 0.26 l0 2.24 c0 0.14 -0.12 0.26 -0.26 0.26 l-3.74 0 l0 2.14 l5.9 0 c0.14 0 0.26 0.12 0.26 0.26 l0 2.24 c0 0.14 -0.12 0.26 -0.26 0.26 l-8.74 0 c-0.16 0 -0.26 -0.12 -0.26 0.08 z M76.34 20 c-0.14 0 -0.26 -0.12 -0.26 -0.26 l0 -11.98 c0 -0.14 0.12 -0.26 0.26 -0.26 l2.6 0 c0.14 0 0.26 0.12 0.26 0.26 l0 9.36 l4.5 0 c0.14 0 0.26 0.12 0.26 0.26 l0 2.36 c0 0.14 -0.12 0.26 -0.26 0.26 l-7.36 0 z M89.168 20 c-0.14 0 -0.26 -0.12 -0.26 -0.26 l0 -11.98 c0 -0.14 0.12 -0.26 0.26 -0.26 l2.6 0 c0.14 0 0.26 0.12 0.26 0.26 l0 11.98 c0 0.14 -0.12 0.26 -0.26 0.26 l-2.6 0 z M101.236 20 c-0.1 0 -0.2 -0.06 -0.24 -0.16 l-4 -12 c-0.04 -0.08 -0.02 -0.16 0.02 -0.24 c0.06 -0.06 0.14 -0.1 0.22 -0.1 l2.8 0 c0.1 0 0.2 0.06 0.24 0.18 l2.38 7.82 l2.4 -7.82 c0.04 -0.12 0.14 -0.18 0.24 -0.18 l2.68 0 c0.08 0 0.16 0.04 0.22 0.1 c0.04 0.08 0.06 0.16 0.02 0.24 l-4.06 12 c-0.04 0.1 -0.12 0.16 -0.24 0.16 l-2.68 0 z M113.184 20 l0 -11.98 c0 -0.5 0.1 -0.6 0.26 -0.6 l8.76 0 c0.14 0 0.26 0.1 0.26 0.24 l0 2.26 c0 0.14 -0.12 0.26 -0.26 0.26 l-5.92 0 l0 2.08 l3.74 0 c0.14 0 0.26 0.12 0.26 0.26 l0 2.24 c0 0.14 -0.12 0.26 -0.26 0.26 l-3.74 0 l0 2.14 l5.9 0 c0.14 0 0.26 0.12 0.26 0.26 l0 2.24 c0 0.14 -0.12 0.26 -0.26 0.26 l-8.74 0 c-0.16 0 -0.26 -0.12 -0.26 0.08 z M127.672 20 c-0.16 0 -0.26 -0.12 -0.26 -0.26 l0 -11.98 c0 -0.14 0.1 -0.26 0.26 -0.26 l4.88 0 c1.52 0 2.72 0.38 3.56 1.16 c1.24 1.12 1.66 3.24 1.06 4.8 c-0.22 0.56 -0.6 1.08 -1.08 1.46 c-0.28 0.22 -0.58 0.38 -0.88 0.54 c0.86 1.36 2.16 4.12 2.16 4.12 c0.02 0.04 0.06 0.1 0.06 0.16 c0 0.14 -0.12 0.26 -0.26 0.26 l-2.96 0 c-0.08 0 -0.18 -0.06 -0.22 -0.14 l-1.74 -3.82 c-0.62 0.04 -1.1 0.02 -1.74 0.02 l0 3.68 c0 0.14 -0.12 0.26 -0.26 0.26 l-2.58 0 z M130.512 13.280000000000001 c0 0 2.52 0.28 3.4 -0.3 c0.34 -0.22 0.54 -0.76 0.54 -1.16 c-0.02 -0.44 -0.24 -0.9 -0.6 -1.18 c-0.38 -0.32 -1.32 -0.42 -1.8 -0.42 l-1.54 0.04 l0 3.02 z M158.90800000000002 21.38 c-0.08 0 -0.18 -0.06 -0.22 -0.14 l-0.6 -1.24 c-0.28 0.04 -0.58 0.06 -0.9 0.06 c-1.18 0 -2.28 -0.3 -3.26 -0.86 s-1.76 -1.34 -2.32 -2.32 s-0.86 -2.08 -0.86 -3.28 s0.3 -2.3 0.86 -3.28 s1.34 -1.74 2.3 -2.3 c0.98 -0.56 2.08 -0.84 3.28 -0.84 s2.3 0.28 3.28 0.84 c0.96 0.56 1.76 1.32 2.32 2.3 s0.84 2.08 0.84 3.28 c0 1.18 -0.28 2.3 -0.84 3.28 c-0.46 0.78 -1.04 1.42 -1.74 1.94 l1 2.14 c0.04 0.04 0.08 0.1 0.08 0.16 c0 0.14 -0.12 0.26 -0.26 0.26 l-2.96 0 z M156.74800000000002 17.14 l-0.8 -1.68 c-0.04 -0.04 -0.06 -0.1 -0.06 -0.16 c0 -0.14 0.12 -0.26 0.26 -0.26 l2.94 0 c0.1 0 0.18 0.06 0.24 0.14 l0.36 0.76 c0.12 -0.16 0.22 -0.34 0.32 -0.52 c0.3 -0.54 0.44 -1.16 0.44 -1.82 s-0.14 -1.26 -0.44 -1.8 c-0.28 -0.54 -0.68 -0.98 -1.18 -1.28 c-0.48 -0.32 -1.02 -0.46 -1.6 -0.46 s-1.14 0.14 -1.64 0.46 c-0.52 0.32 -0.92 0.74 -1.22 1.28 c-0.28 0.54 -0.44 1.14 -0.44 1.8 s0.16 1.26 0.46 1.8 s0.7 0.98 1.2 1.3 c0.36 0.22 0.76 0.38 1.16 0.44 z M173.79600000000002 20 c-1.08 0 -1.86 -0.22 -2.68 -0.66 c-0.8 -0.44 -1.44 -1.06 -1.88 -1.88 c-0.44 -0.8 -0.66 -1.76 -0.66 -2.86 l0 -7.04 c0 -0.14 0.12 -0.24 0.26 -0.24 l2.6 0 c0.14 0 0.24 0.1 0.24 0.24 l0 7.04 c0 0.8 0.22 1.42 0.64 1.86 s0.8 0.66 1.5 0.66 s1.06 -0.22 1.46 -0.64 c0.4 -0.44 0.6 -1.08 0.6 -1.88 l0 -7.04 c0 -0.14 0.12 -0.24 0.26 -0.24 l2.6 0 c0.14 0 0.26 0.1 0.26 0.24 l0 7.04 c0 1.1 -0.22 2.06 -0.66 2.86 c-0.42 0.82 -1.06 1.44 -1.86 1.88 s-1.6 0.66 -2.68 0.66 z M184.204 20 c-0.08 0 -0.16 -0.04 -0.2 -0.12 c-0.06 -0.06 -0.06 -0.16 -0.04 -0.24 l4.66 -11.98 c0.04 -0.1 0.14 -0.16 0.24 -0.16 l2.68 0 c0.1 0 0.2 0.06 0.24 0.16 l4.58 11.98 c0.02 0.08 0.02 0.16 -0.04 0.24 c-0.04 0.08 -0.12 0.12 -0.2 0.12 l-2.78 0 c-0.1 0 -0.2 -0.06 -0.24 -0.16 l-0.74 -1.84 l-4.5 0.02 l-0.74 1.82 c-0.04 0.1 -0.14 0.16 -0.24 0.16 l-2.68 0 z M188.68400000000003 15.5 l2.88 0 l-1.44 -4.24 z M201.392 20 c-0.14 0 -0.26 -0.12 -0.26 -0.26 l0 -11.98 c0 -0.14 0.12 -0.26 0.26 -0.26 l2.6 0 c0.14 0 0.26 0.12 0.26 0.26 l0 9.36 l4.5 0 c0.14 0 0.26 0.12 0.26 0.26 l0 2.36 c0 0.14 -0.12 0.26 -0.26 0.26 l-7.36 0 z M214.22 20 c-0.14 0 -0.26 -0.12 -0.26 -0.26 l0 -11.98 c0 -0.14 0.12 -0.26 0.26 -0.26 l2.6 0 c0.14 0 0.26 0.12 0.26 0.26 l0 11.98 c0 0.14 -0.12 0.26 -0.26 0.26 l-2.6 0 z M225.26800000000003 20 c-0.14 0 -0.24 -0.12 -0.24 -0.26 l0 -9.44 l-2.74 0 c-0.14 0 -0.26 -0.1 -0.26 -0.24 l0 -2.3 c0 -0.14 0.12 -0.26 0.26 -0.26 l8.58 0 c0.16 0 0.26 0.12 0.26 0.26 l0 2.3 c0 0.14 -0.1 0.24 -0.26 0.24 l-2.74 0 l0 9.44 c0 0.14 -0.12 0.26 -0.26 0.26 l-2.6 0 z M239.776 20 c-0.14 0 -0.24 -0.12 -0.24 -0.26 l0 -4.76 l-4.24 -7.1 c-0.04 -0.08 -0.04 -0.18 0.02 -0.26 c0.04 -0.08 0.12 -0.12 0.22 -0.12 l2.6 0 c0.1 0 0.18 0.04 0.22 0.14 l2.72 4.44 l2.66 -4.44 c0.04 -0.08 0.12 -0.14 0.22 -0.14 l2.62 0 c0.08 0 0.18 0.04 0.22 0.12 s0.04 0.18 0 0.26 l-4.16 7.02 l0 4.84 c0 0.14 -0.12 0.26 -0.26 0.26 l-2.6 0 z M253.084 20 c-0.38 0 -0.7 -0.14 -0.94 -0.4 c-0.24 -0.28 -0.38 -0.6 -0.38 -1 s0.14 -0.72 0.38 -0.98 c0.26 -0.26 0.56 -0.4 0.94 -0.4 s0.7 0.14 0.94 0.4 s0.36 0.58 0.36 0.98 s-0.12 0.74 -0.36 1 s-0.56 0.4 -0.94 0.4 z"></path></g>
			</g>
		</svg>
	